<svg width="64" height="64" viewBox="0 0 64 64" fill="none" xmlns="http://www.w3.org/2000/svg">
<path d="M40.9 27.2L33.3 40.1C32.9 40.1 32.5 40 32 40C29.2 40 27 42.2 27 45C27 47.8 29.2 50 32 50C34.8 50 37 47.8 37 45C37 43.4 36.2 42 35.1 41.1L42.4 28.7C44.4 31 45.7 33.9 45.9 37.1C45.9 37.6 46.4 38 46.9 38H50.3C50.8 38 51.1 37.7 51.3 37.3C51.8 35.6 52 33.8 52 32C52 21 43 12 32 12C21 12 12 21 12 32C12 33.8 12.2 35.6 12.7 37.3C12.8 37.7 13.2 38 13.7 38H17C17.5 38 18 37.6 18 37.1C18.5 29.7 24.6 24 32 24C35.4 24 38.5 25.2 40.9 27.2ZM32 48C30.3 48 29 46.7 29 45C29 43.3 30.3 42 32 42C33.7 42 35 43.3 35 45C35 46.7 33.7 48 32 48ZM25.8 23.3L22.9 16.6C22.9 16.6 22.9 16.5 22.8 16.5C25.2 15.1 28 14.2 30.9 14V22C29.2 22.2 27.4 22.6 25.8 23.3ZM33 22V14C36 14.2 38.7 15 41.1 16.5C41.1 16.5 41.1 16.6 41 16.6L38.1 23.3C36.6 22.6 34.8 22.2 33 22ZM49.6 36H47.9C47.6 33.7 46.8 31.6 45.7 29.7L49.3 27C49.8 28.6 50 30.2 50 32C50 33.4 49.8 34.7 49.6 36ZM48.6 25.1C48.5 25.1 48.4 25.2 48.4 25.2L44.5 28.1C44.2 27.7 43.8 27.3 43.4 26.9L44.8 24.5C45.1 24 44.9 23.4 44.4 23.1C43.9 22.8 43.3 23 43 23.5L41.8 25.5C41.2 25 40.5 24.6 39.9 24.2L42.7 17.7C45.4 19.6 47.4 22.1 48.6 25.1ZM16.1 36H14.4C14.1 34.7 14 33.4 14 32C14 30.3 14.3 28.6 14.7 27L18.3 29.7C17.2 31.6 16.4 33.7 16.1 36ZM19.5 28.1L15.6 25.2C15.5 25.1 15.5 25.1 15.4 25.1C16.6 22.1 18.7 19.6 21.2 17.6L24 24.1C22.2 25.2 20.7 26.5 19.5 28.1Z" fill="white"/>
<path d="M56 51H49.7C54.8 46.3 58 39.5 58 32C58 17.7 46.3 6 32 6C30.9 6 29.8 6.1 28.7 6.2C27.9 4.3 26.1 3 24 3H23C20.8 3 19 4.8 19 7C19 7.8 19.3 8.5 19.8 9C18.7 9.6 17.7 10.2 16.7 11H4C3.4 11 3 11.4 3 12C3 12.6 3.4 13 4 13H14.3C9.2 17.7 6 24.5 6 32C6 46.3 17.7 58 32 58C37.7 58 43 56.1 47.3 53H56C57.7 53 59 54.3 59 56C59 57.7 57.7 59 56 59H55C53.9 59 53 58.1 53 57C53 56.4 53.4 56 54 56C54.6 56 55 55.6 55 55C55 54.4 54.6 54 54 54C52.3 54 51 55.3 51 57C51 59.2 52.8 61 55 61H56C58.8 61 61 58.8 61 56C61 53.2 58.8 51 56 51ZM22 8C21.4 8 21 7.6 21 7C21 5.9 21.9 5 23 5H24C25.1 5 26.1 5.6 26.6 6.6C25 6.9 23.5 7.4 22 8ZM26.9 8.5C26.7 9.9 25.5 11 24 11H20.4C22.4 9.9 24.6 9 26.9 8.5ZM32 56C18.8 56 8 45.2 8 32C8 24.3 11.7 17.4 17.4 13H24C26.7 13 28.9 10.9 29 8.2C30 8.1 31 8 32 8C45.2 8 56 18.8 56 32C56 39.7 52.3 46.6 46.6 51H28C27.4 51 27 51.4 27 52C27 52.6 27.4 53 28 53H43.6C40.2 54.9 36.2 56 32 56Z" fill="white"/>
</svg>
