<svg width="512" height="512" viewBox="0 0 512 512" fill="none" xmlns="http://www.w3.org/2000/svg">
<path d="M140.75 264.39C129.672 282.227 124.429 303.074 125.75 324.03C128.75 374.27 169.1 415.15 219.3 418.83C237.955 420.24 256.635 416.461 273.275 407.911C289.915 399.361 303.864 386.374 313.579 370.386C323.295 354.399 328.397 336.035 328.321 317.328C328.245 298.62 322.994 280.298 313.15 264.39L238.63 160C237.409 157.999 235.695 156.346 233.651 155.199C231.608 154.052 229.304 153.449 226.96 153.449C224.616 153.449 222.312 154.052 220.268 155.199C218.225 156.346 216.51 157.999 215.29 160L140.75 264.39Z" stroke="black" stroke-width="15.04" stroke-linejoin="round"/>
<path d="M163.78 291.38C163.78 291.38 148.78 338.26 186.52 370.04" stroke="black" stroke-width="15.04" stroke-linejoin="round"/>
<path d="M306.6 140.1C302.557 146.634 300.332 154.13 300.156 161.813C299.981 169.495 301.86 177.085 305.6 183.797C309.34 190.51 314.805 196.102 321.431 199.994C328.056 203.887 335.601 205.94 343.285 205.94C350.969 205.94 358.514 203.887 365.139 199.994C371.765 196.102 377.23 190.51 380.97 183.797C384.71 177.085 386.59 169.495 386.414 161.813C386.238 154.13 384.013 146.634 379.97 140.1L348.25 95.68C347.732 94.8274 347.003 94.1226 346.133 93.6335C345.264 93.1444 344.283 92.8875 343.285 92.8875C342.287 92.8875 341.306 93.1444 340.437 93.6335C339.567 94.1226 338.838 94.8274 338.32 95.68L306.6 140.1Z" stroke="black" stroke-width="15.04" stroke-linejoin="round"/>
</svg>
