<svg width="96" height="96" viewBox="0 0 96 96" fill="none" xmlns="http://www.w3.org/2000/svg">
<path d="M48 30C49.104 30 50 29.104 50 28V24C50 22.896 49.104 22 48 22C46.895 22 46 22.896 46 24V28C46 29.104 46.895 30 48 30Z" fill="white"/>
<path d="M28 46H24C22.895 46 22 46.896 22 48C22 49.104 22.895 50 24 50H28C29.104 50 30 49.104 30 48C30 46.896 29.104 46 28 46Z" fill="white"/>
<path d="M72 46H68C66.895 46 66 46.896 66 48C66 49.104 66.895 50 68 50H72C73.104 50 74 49.104 74 48C74 46.896 73.104 46 72 46Z" fill="white"/>
<path d="M66.3851 29.615C65.6041 28.834 64.3381 28.834 63.5571 29.615L60.7291 32.443C59.9481 33.224 59.9481 34.49 60.7291 35.271C61.1201 35.662 61.6311 35.857 62.1431 35.857C62.6551 35.857 63.1661 35.662 63.5571 35.271L66.3851 32.443C67.1661 31.662 67.1661 30.396 66.3851 29.615Z" fill="white"/>
<path d="M35.271 32.443L32.443 29.615C31.662 28.834 30.396 28.834 29.615 29.615C28.834 30.396 28.834 31.662 29.615 32.443L32.443 35.271C32.834 35.662 33.345 35.857 33.857 35.857C34.369 35.857 34.88 35.662 35.271 35.271C36.053 34.49 36.053 33.225 35.271 32.443Z" fill="white"/>
<path d="M48 34C40.28 34 34 40.28 34 48C34 50.449 34.652 52.871 35.888 55.003C36.245 55.62 36.904 56 37.618 56H58.382C59.096 56 59.755 55.62 60.112 55.003C61.348 52.871 62 50.449 62 48C62 40.28 55.72 34 48 34ZM57.157 52H38.843C38.289 50.738 38 49.375 38 48C38 42.486 42.486 38 48 38C53.514 38 58 42.486 58 48C58 49.375 57.711 50.738 57.157 52Z" fill="white"/>
<path d="M52.586 64.586L50 67.172V62C50 60.896 49.104 60 48 60C46.895 60 46 60.896 46 62V67.172L43.414 64.586C42.633 63.805 41.367 63.805 40.586 64.586C39.805 65.367 39.805 66.633 40.586 67.414L46.586 73.414C46.977 73.805 47.488 74 48 74C48.512 74 49.023 73.805 49.414 73.414L55.414 67.414C56.195 66.633 56.195 65.367 55.414 64.586C54.633 63.805 53.367 63.805 52.586 64.586Z" fill="white"/>
</svg>
