<svg width="32" height="32" viewBox="0 0 32 32" fill="none" xmlns="http://www.w3.org/2000/svg">
<path d="M17 19.18V13C17 12.7348 16.8947 12.4804 16.7071 12.2929C16.5196 12.1054 16.2652 12 16 12C15.7348 12 15.4804 12.1054 15.2929 12.2929C15.1054 12.4804 15 12.7348 15 13V19.18C14.3328 19.4159 13.7705 19.8801 13.4124 20.4905C13.0543 21.1009 12.9235 21.8182 13.0432 22.5157C13.1629 23.2132 13.5253 23.846 14.0663 24.3021C14.6074 24.7582 15.2923 25.0084 16 25.0084C16.7077 25.0084 17.3926 24.7582 17.9337 24.3021C18.4747 23.846 18.8371 23.2132 18.9568 22.5157C19.0765 21.8182 18.9457 21.1009 18.5876 20.4905C18.2296 19.8801 17.6672 19.4159 17 19.18Z" fill="black"/>
<path d="M21 17.11V7C21 5.67392 20.4732 4.40215 19.5355 3.46447C18.5978 2.52678 17.326 2 16 2C14.6739 2 13.4021 2.52678 12.4644 3.46447C11.5267 4.40215 11 5.67392 11 7V17.11C10.1241 18.0054 9.50455 19.1194 9.20591 20.3358C8.90727 21.5522 8.94048 22.8265 9.30208 24.0257C9.66368 25.2249 10.3404 26.3051 11.2617 27.1537C12.183 28.0022 13.3151 28.588 14.54 28.85C15.0203 28.9495 15.5095 28.9998 16 29C17.3765 28.9983 18.722 28.5907 19.8682 27.8283C21.0143 27.0659 21.9102 25.9824 22.4439 24.7135C22.9775 23.4446 23.1251 22.0465 22.8683 20.6941C22.6115 19.3417 21.9616 18.095 21 17.11ZM19.16 25.87C18.5768 26.3428 17.8946 26.6782 17.164 26.8514C16.4335 27.0245 15.6733 27.0308 14.94 26.87C14.0414 26.6738 13.2144 26.2337 12.5499 25.5979C11.8853 24.9621 11.409 24.1553 11.1733 23.2664C10.9376 22.3774 10.9517 21.4406 11.214 20.5591C11.4763 19.6776 11.9766 18.8855 12.66 18.27C12.7666 18.1763 12.8521 18.0609 12.9107 17.9316C12.9694 17.8023 12.9998 17.662 13 17.52V7C13 6.20435 13.316 5.44129 13.8786 4.87868C14.4412 4.31607 15.2043 4 16 4C16.7956 4 17.5587 4.31607 18.1213 4.87868C18.6839 5.44129 19 6.20435 19 7V17.54C19.0001 17.682 19.0306 17.8223 19.0892 17.9516C19.1478 18.0809 19.2333 18.1963 19.34 18.29C19.8745 18.7722 20.2986 19.3642 20.5833 20.0254C20.868 20.6867 21.0065 21.4016 20.9894 22.1213C20.9723 22.841 20.8 23.5486 20.4843 24.1955C20.1685 24.8425 19.7168 25.4137 19.16 25.87Z" fill="black"/>
</svg>
