<svg width="32" height="32" viewBox="0 0 32 32" fill="none" xmlns="http://www.w3.org/2000/svg">
<path d="M16 21C17.6569 21 19 19.6569 19 18C19 16.3431 17.6569 15 16 15C14.3431 15 13 16.3431 13 18C13 19.6569 14.3431 21 16 21Z" stroke="white" stroke-width="2" stroke-miterlimit="10" stroke-linejoin="round"/>
<path d="M31 18C31 18 25 9 16 9C7 9 1 18 1 18C1 18 7 27 16 27C25 27 31 18 31 18Z" stroke="white" stroke-width="2" stroke-miterlimit="10" stroke-linejoin="round"/>
<path d="M16 6V2" stroke="white" stroke-width="2" stroke-miterlimit="10" stroke-linejoin="round"/>
<path d="M7 9L4 6" stroke="white" stroke-width="2" stroke-miterlimit="10" stroke-linejoin="round"/>
<path d="M25 9L28 6" stroke="white" stroke-width="2" stroke-miterlimit="10" stroke-linejoin="round"/>
</svg>
