<svg width="32" height="32" viewBox="0 0 32 32" fill="none" xmlns="http://www.w3.org/2000/svg">
<path fill-rule="evenodd" clip-rule="evenodd" d="M30 14C30 11.7909 28.2046 10 26 10C23.7909 10 22 11.7894 22 14H24C24 12.8954 24.8877 12 26 12C27.1046 12 28 12.8877 28 14C28 15.1046 27.1102 16 25.9964 16H3V18H26.0015C28.2098 18 30 16.2046 30 14ZM21 10C21 7.79086 19.2046 6 17 6C14.7909 6 13 7.78941 13 9.9971V10H15C15 8.89543 15.8877 8 17 8C18.1046 8 19 8.88773 19 10C19 11.1046 18.1029 12 16.9941 12H5V14H17.0038C19.2108 14 21 12.2046 21 10ZM26 23C26 24.6569 24.6535 26 23 26C21.3431 26 20 24.6579 20 23.0086V23H22C22 23.5523 22.4439 24 23 24C23.5523 24 24 23.5561 24 23C24 22.4477 23.5511 22 22.9925 22H9V20H22.9999C24.6568 20 26 21.3465 26 23Z" fill="black"/>
</svg>
